<?xml version="1.0" encoding="iso-8859-1"?>
<!-- Generator: Adobe Illustrator 18.0.0, SVG Export Plug-In . SVG Version: 6.00 Build 0)  -->
<!DOCTYPE svg PUBLIC "-//W3C//DTD SVG 1.1//EN" "http://www.w3.org/Graphics/SVG/1.1/DTD/svg11.dtd">
<svg version="1.1" id="&#x30EC;&#x30A4;&#x30E4;&#x30FC;_1"
	 xmlns="http://www.w3.org/2000/svg" xmlns:xlink="http://www.w3.org/1999/xlink" x="0px" y="0px" viewBox="0 0 368.5 104.88"
	 style="enable-background:new 0 0 368.5 104.88;" xml:space="preserve">
<g>
	<g>
		<polygon points="26.049,52.883 10.467,0.151 0,0.151 0,104.822 10.467,104.822 10.467,36.703 20.714,70.665 10.467,104.822 
			21.36,104.822 31.308,70.999 31.402,70.999 31.355,70.843 41.869,36.562 41.869,104.822 52.336,104.822 52.336,0.151 
			41.869,0.151 		"/>
	</g>
	<g>
		<path d="M155.37,0.151h-47.075h-5.26h-5.207v78.504c0,6.586-7.043,15.701-15.701,15.701s-15.701-8.802-15.701-15.701h0V0.151
			H55.958v78.504c0,14.429,11.739,26.168,26.168,26.168s26.168-11.739,26.168-26.168V10.618h31.636l-36.857,94.16l-0.04,0.044h0.023
			l-0.023,0.058h52.336V94.355h-37.059l36.968-94.063L155.37,0.151z"/>
	</g>
	<g>
		<polygon points="199.894,47.253 168.493,47.253 168.493,0.151 158.026,0.151 158.026,104.822 168.493,104.822 168.493,57.72 
			199.894,57.72 199.894,104.822 210.362,104.822 210.362,0.151 199.894,0.151 		"/>
	</g>
	<g>
		<path d="M259.65,52.486c0,28.904,23.432,52.336,52.336,52.336V94.355c-11.184,0-21.698-4.355-29.606-12.263
			c-7.908-7.908-12.263-18.422-12.263-29.606s4.355-21.698,12.263-29.606c7.908-7.908,18.422-12.263,29.606-12.263V0.151
			C283.081,0.151,259.65,23.582,259.65,52.486z"/>
	</g>
	<g>
		<polygon points="368.5,0.136 357.223,0.136 326.631,78.204 326.631,0.165 316.164,0.165 316.164,104.837 326.631,104.837 
			326.631,104.826 327.34,104.826 344.597,60.934 357.546,104.808 368.482,104.808 350.727,45.343 		"/>
	</g>
	<g>
		<path d="M271.302,0.122l-11.329,0.058l-14.834,37.874L230.291,0.122h-5.84h-5.467h-5v104.672h10.467v-0.011h5.691l14.992-38.122
			l15.009,38.191h11.141l-20.536-52.466L271.302,0.122z M224.451,90.869V14.033l15.073,38.353L224.451,90.869z"/>
	</g>
</g>
</svg>
