<?xml version="1.0" encoding="iso-8859-1"?>
<!-- Generator: Adobe Illustrator 18.0.0, SVG Export Plug-In . SVG Version: 6.00 Build 0)  -->
<!DOCTYPE svg PUBLIC "-//W3C//DTD SVG 1.1//EN" "http://www.w3.org/Graphics/SVG/1.1/DTD/svg11.dtd">
<svg version="1.1" id="&#x30EC;&#x30A4;&#x30E4;&#x30FC;_1"
	 xmlns="http://www.w3.org/2000/svg" xmlns:xlink="http://www.w3.org/1999/xlink" x="0px" y="0px" viewBox="0 0 207 210"
	 style="enable-background:new 0 0 207 210;" xml:space="preserve">
<g>
	<g>
		<polygon points="25.57,52.315 10.371,0.877 0.161,0.877 0.161,102.977 10.371,102.977 10.371,36.532 20.366,69.659 
			10.371,102.977 20.996,102.977 30.699,69.985 30.791,69.985 30.746,69.833 41.001,36.394 41.001,102.977 51.211,102.977 
			51.211,0.877 41.001,0.877 		"/>
	</g>
	<g>
		<path d="M151.713,0.877H95.584l0,76.575c0,6.424-6.87,15.315-15.315,15.315s-15.315-8.586-15.315-15.315h0V0.877h-10.21v76.575
			c0,14.075,11.451,25.525,25.525,25.525s25.525-11.451,25.525-25.525V11.087h30.859l-35.951,91.847l-0.039,0.043h0.022
			l-0.022,0.056h51.05V92.767h-36.148l36.06-91.752L151.713,0.877z"/>
	</g>
	<g>
		<polygon points="41.001,152.939 10.371,152.939 10.371,106.994 0.161,106.994 0.161,209.094 10.371,209.094 10.371,163.149 
			41.001,163.149 41.001,209.094 51.211,209.094 51.211,106.994 41.001,106.994 		"/>
	</g>
	<g>
		<path d="M100.663,158.044c0,28.194,22.856,51.05,51.05,51.05v-10.21c-10.909,0-21.165-4.248-28.878-11.962
			s-11.962-17.969-11.962-28.878s4.248-21.165,11.962-28.878s17.969-11.962,28.878-11.962v-10.21
			C123.519,106.994,100.663,129.85,100.663,158.044z"/>
	</g>
	<g>
		<polygon points="206.839,106.98 195.839,106.98 165.999,183.13 165.999,107.008 155.789,107.008 155.789,209.109 165.999,209.109 
			165.999,209.098 166.69,209.098 183.523,166.284 196.155,209.08 206.822,209.08 189.502,151.076 		"/>
	</g>
	<g>
		<path d="M110.654,106.966l-11.051,0.056l-14.47,36.943l-14.482-36.999H54.744v102.1l10.21-0.011h5.551L85.13,171.87l14.641,37.252
			h10.867l-20.032-51.177L110.654,106.966z M64.954,195.484v-74.948l14.703,37.411L64.954,195.484z"/>
	</g>
</g>
</svg>
