<?xml version="1.0" encoding="iso-8859-1"?>
<!-- Generator: Adobe Illustrator 18.0.0, SVG Export Plug-In . SVG Version: 6.00 Build 0)  -->
<!DOCTYPE svg PUBLIC "-//W3C//DTD SVG 1.1//EN" "http://www.w3.org/Graphics/SVG/1.1/DTD/svg11.dtd">
<svg version="1.1" id="&#x30EC;&#x30A4;&#x30E4;&#x30FC;_1"
	 xmlns="http://www.w3.org/2000/svg" xmlns:xlink="http://www.w3.org/1999/xlink" x="0px" y="0px" viewBox="0 0 400 400"
	 style="enable-background:new 0 0 400 400;" xml:space="preserve">
<g>
	<rect x="5.669" y="5.674" style="fill:#FFFFFF;" width="388.662" height="388.652"/>
	<path d="M388.661,11.343v377.314H11.339V11.343H388.661 M400,0.004H0v399.991h400V0.004L400,0.004z"/>
</g>
<g>
	<polygon points="84.682,125.383 62.191,49.268 47.083,49.268 47.083,200.352 62.191,200.352 62.191,102.028 76.982,151.049 
		62.191,200.352 77.914,200.352 92.272,151.531 92.408,151.531 92.342,151.305 107.516,101.825 107.516,200.352 122.625,200.352 
		122.625,49.268 107.516,49.268 	"/>
	<path d="M271.344,49.268h-83.057l0,113.312c0,9.507-10.166,22.663-22.662,22.663c-12.496,0-22.662-12.705-22.662-22.663h0V49.268
		h-15.108v113.312c0,20.827,16.944,37.771,37.771,37.771s37.771-16.944,37.771-37.771V64.377h45.664L195.86,200.288l-0.058,0.064
		h0.033l-0.033,0.083h75.542v-15.192h-53.491l53.36-135.771L271.344,49.268z"/>
	<polygon points="107.516,274.283 62.191,274.283 62.191,206.296 47.083,206.296 47.083,357.379 62.191,357.379 62.191,289.392 
		107.516,289.392 107.516,357.379 122.625,357.379 122.625,206.296 107.516,206.296 	"/>
	<path d="M195.802,281.838c0,41.72,33.821,75.542,75.542,75.542v-15.108c-16.142,0-31.318-6.286-42.733-17.701
		c-11.414-11.414-17.701-26.59-17.701-42.733s6.286-31.318,17.701-42.733c11.414-11.414,26.59-17.701,42.733-17.701v-15.108
		C229.624,206.296,195.802,240.117,195.802,281.838z"/>
	<polygon points="352.917,206.275 336.64,206.275 292.484,318.958 292.484,206.317 277.375,206.317 277.375,357.4 292.484,357.4 
		292.484,357.384 293.507,357.384 318.415,294.03 337.107,357.358 352.892,357.358 327.263,271.526 	"/>
	<path d="M210.587,206.254l-16.353,0.083l-21.412,54.667l-21.431-54.75h-23.538v151.083l15.108-0.016h8.215l21.64-55.025
		l21.665,55.124h16.081l-29.642-75.729L210.587,206.254z M142.962,337.239V226.333l21.757,55.359L142.962,337.239z"/>
</g>
</svg>
